<?xml version="1.0" standalone="no"?>
<!DOCTYPE svg PUBLIC "-//W3C//DTD SVG 20010904//EN"
 "http://www.w3.org/TR/2001/REC-SVG-20010904/DTD/svg10.dtd">
<svg version="1.0" xmlns="http://www.w3.org/2000/svg"
 width="187.000000pt" height="187.000000pt" viewBox="0 0 187.000000 187.000000"
 preserveAspectRatio="xMidYMid meet">
<metadata>
Created by potrace 1.11, written by Peter Selinger 2001-2013
</metadata>
<g transform="translate(0.000000,187.000000) scale(0.100000,-0.100000)"
fill="#000000" stroke="none">
<path d="M860 1769 c-269 -31 -495 -180 -628 -414 -22 -39 -46 -91 -53 -115
-7 -25 -16 -50 -20 -55 -13 -17 -29 -135 -29 -211 0 -108 10 -164 29 -164 14
-1 14 -2 -1 -11 -10 -5 -18 -14 -18 -19 0 -16 38 -11 78 9 20 10 82 31 137 46
89 24 113 26 220 23 120 -4 120 -4 240 -57 254 -113 282 -124 360 -143 131
-32 267 -27 440 18 15 3 13 1 -5 -9 -62 -35 -248 -54 -368 -37 -48 6 -119 25
-165 45 -87 35 -269 115 -327 143 -29 14 -65 17 -200 17 -161 0 -167 -1 -260
-33 -110 -38 -140 -56 -122 -74 9 -9 23 -7 59 10 79 35 203 64 298 69 125 7
185 -9 420 -116 249 -114 389 -135 590 -87 55 14 101 23 103 21 7 -7 -82 -35
-140 -45 -82 -13 -219 -13 -292 1 -51 9 -183 56 -225 80 -9 5 -59 27 -111 49
-52 22 -102 44 -111 49 -76 43 -312 39 -457 -8 -50 -16 -101 -36 -111 -43 -27
-19 -12 -43 20 -33 l24 8 -25 -21 c-19 -15 -22 -23 -14 -32 9 -9 24 -6 60 9
76 32 217 61 297 61 82 0 193 -26 252 -59 42 -23 39 -23 -67 15 -56 20 -86 24
-180 24 -62 0 -129 -4 -148 -9 -105 -27 -194 -58 -198 -68 -7 -22 28 -27 64
-9 20 9 90 26 156 38 117 20 125 20 213 5 50 -9 123 -31 161 -48 121 -55 148
-67 188 -83 22 -9 36 -19 33 -22 -3 -4 -25 3 -49 14 -245 116 -279 126 -423
127 -66 0 -138 -5 -160 -12 -146 -43 -160 -49 -160 -63 0 -19 19 -17 115 11
141 41 380 27 452 -26 19 -14 20 -16 3 -10 -164 60 -272 66 -445 24 -94 -23
-103 -28 -94 -52 5 -13 10 -14 25 -6 37 19 171 39 267 39 105 -1 165 -11 227
-39 188 -87 280 -126 355 -151 116 -39 350 -39 350 1 0 4 -62 10 -137 11 -141
4 -255 28 -307 63 -29 21 -18 19 64 -11 133 -48 382 -52 432 -7 30 27 6 34
-57 17 -101 -26 -312 -5 -412 42 -56 27 -32 25 53 -3 71 -25 93 -28 224 -28
147 0 228 14 252 43 20 23 0 25 -89 7 -48 -10 -111 -20 -139 -22 -62 -6 -244
31 -294 58 -39 22 -27 20 75 -13 101 -32 297 -32 405 1 86 27 95 33 86 56 -4
12 -10 14 -19 7 -26 -21 -174 -46 -272 -46 -145 0 -204 14 -363 87 -24 10 -41
21 -39 24 3 2 34 -9 71 -26 173 -78 351 -94 531 -46 97 25 144 52 131 74 -4 5
-13 8 -21 4 -27 -10 -16 6 15 22 17 9 30 22 30 31 0 15 -11 14 -57 -3 -7 -3
-13 -2 -13 1 0 3 18 13 40 22 22 9 41 19 41 23 1 3 3 15 5 26 2 11 9 45 15 75
19 92 6 270 -26 369 -72 219 -235 406 -437 500 -116 55 -294 84 -418 70z m280
-129 c223 -75 376 -216 459 -423 38 -97 56 -242 41 -342 -5 -39 -13 -88 -16
-111 -7 -46 -24 -57 -113 -74 -69 -13 -243 -13 -312 0 -50 10 -137 41 -204 73
-253 124 -360 149 -535 129 -55 -6 -126 -21 -157 -32 -32 -11 -60 -20 -63 -20
-11 0 8 287 22 330 83 251 301 443 557 491 79 14 249 3 321 -21z m-425 -909
c33 -10 85 -30 115 -43 30 -14 68 -30 84 -37 16 -6 26 -14 23 -17 -3 -3 -41
10 -84 29 -145 65 -168 70 -303 71 -109 0 -136 -4 -213 -28 -49 -15 -91 -25
-94 -22 -11 10 134 52 242 69 52 9 168 -3 230 -22z m197 -135 c29 -13 71 -31
92 -40 22 -9 37 -19 34 -22 -3 -2 -35 9 -72 26 -37 16 -70 30 -74 30 -10 0
-49 29 -40 30 4 0 31 -11 60 -24z m-18 -100 c28 -13 69 -31 90 -40 22 -9 36
-19 33 -22 -3 -3 -30 5 -59 19 -29 14 -70 32 -90 40 -21 9 -38 18 -38 21 0 10
12 7 64 -18z"/>
<path d="M935 1530 c-49 -13 -127 -56 -172 -95 -46 -39 -53 -55 -25 -55 17 0
0 -10 -88 -48 -25 -10 -74 -41 -109 -67 -63 -48 -151 -148 -151 -172 0 -37
149 -93 246 -93 l51 0 13 45 c7 25 10 61 7 80 -4 24 -2 33 5 29 7 -4 9 -33 5
-80 l-5 -73 46 5 c74 9 151 30 237 63 119 46 170 39 205 -30 l19 -37 -42 -12
c-51 -14 -74 -32 -110 -85 -27 -40 -36 -85 -17 -85 6 0 30 10 53 22 62 33 193
32 259 -1 27 -14 50 -22 54 -19 3 3 1 23 -5 45 -10 38 -69 104 -103 116 -15 5
-15 10 -2 53 43 142 -7 266 -132 329 -55 28 -65 30 -184 30 -69 0 -150 -3
-180 -8 -32 -4 -49 -4 -40 2 26 15 87 22 200 23 61 0 110 2 110 5 0 2 -16 25
-35 50 -19 25 -35 52 -35 59 0 15 -27 17 -75 4z m-337 -353 c2 -10 -3 -17 -12
-17 -18 0 -29 16 -21 31 9 14 29 6 33 -14z"/>
<path d="M430 510 c-14 -5 -51 -14 -82 -20 -36 -7 -58 -16 -58 -25 0 -20 19
-22 74 -8 127 34 310 26 407 -16 24 -11 62 -26 83 -35 22 -9 36 -19 33 -22 -3
-3 -30 6 -61 20 -80 38 -219 68 -291 63 -88 -6 -199 -28 -207 -40 -12 -19 3
-28 32 -22 132 29 332 21 398 -16 21 -11 29 -18 20 -15 -80 24 -117 29 -208
30 -120 1 -200 -10 -200 -27 0 -9 43 -12 163 -12 151 0 168 -2 218 -24 102
-46 260 -114 324 -141 17 -7 25 -14 19 -17 -7 -2 -47 12 -90 32 -83 38 -95 44
-214 96 -68 29 -86 33 -202 37 -132 5 -182 -1 -176 -20 3 -9 46 -12 139 -13
105 -1 143 -5 177 -19 24 -10 42 -20 40 -21 -2 -2 -32 3 -68 11 -90 19 -230
19 -230 0 0 -20 20 -24 118 -25 46 -1 103 -8 128 -17 73 -25 137 -54 131 -60
-3 -3 -32 6 -64 20 -32 14 -89 30 -128 36 -93 13 -105 12 -105 -4 0 -15 30
-26 72 -26 31 0 172 -45 203 -64 11 -7 37 -16 58 -19 46 -7 51 12 6 32 -16 7
-28 15 -26 18 3 2 30 -8 62 -22 57 -25 105 -33 105 -17 0 5 -11 15 -25 22 -42
23 -19 23 32 0 53 -23 104 -20 83 5 -10 11 -3 13 44 8 48 -5 56 -3 56 11 0 9
-7 16 -15 16 -41 0 -323 115 -312 127 2 2 57 -20 122 -48 124 -53 200 -72 262
-67 61 5 50 24 -18 32 -76 8 -196 49 -327 113 -50 25 -31 26 24 2 198 -86 261
-102 378 -97 105 5 95 24 -16 31 -89 5 -207 35 -283 72 -33 15 -103 47 -211
93 -38 17 -90 36 -115 43 -54 15 -245 21 -279 9z m417 -155 c20 -8 34 -18 31
-21 -7 -6 -78 22 -78 30 0 9 7 7 47 -9z m-20 -100 c20 -8 34 -18 31 -21 -7 -6
-78 22 -78 30 0 9 7 7 47 -9z m99 -45 c49 -21 57 -38 9 -20 -28 11 -74 40 -63
40 3 0 28 -9 54 -20z"/>
</g>
</svg>
